<mxfile host="app.diagrams.net" modified="2022-12-14T11:53:18.200Z" agent="5.0 (Macintosh)" etag="UABwAkRC4B51V_1zTEZL" version="20.6.2" type="github">
  <diagram name="Page-1" id="edf60f1a-56cd-e834-aa8a-f176f3a09ee4">
    <mxGraphModel dx="918" dy="409" grid="1" gridSize="10" guides="1" tooltips="1" connect="1" arrows="1" fold="1" page="1" pageScale="1" pageWidth="1100" pageHeight="850" background="none" math="0" shadow="0">
      <root>
        <mxCell id="0" />
        <mxCell id="1" parent="0" />
        <mxCell id="tugkNlBGNRXfISXO0iYd-62" style="edgeStyle=orthogonalEdgeStyle;rounded=0;orthogonalLoop=1;jettySize=auto;html=1;entryX=0.5;entryY=0;entryDx=0;entryDy=0;entryPerimeter=0;exitX=0.5;exitY=1;exitDx=0;exitDy=0;exitPerimeter=0;" edge="1" parent="1" source="tugkNlBGNRXfISXO0iYd-133" target="tugkNlBGNRXfISXO0iYd-61">
          <mxGeometry relative="1" as="geometry">
            <mxPoint x="105" y="80" as="sourcePoint" />
          </mxGeometry>
        </mxCell>
        <mxCell id="tugkNlBGNRXfISXO0iYd-66" value="" style="edgeStyle=orthogonalEdgeStyle;rounded=0;orthogonalLoop=1;jettySize=auto;html=1;" edge="1" parent="1" source="tugkNlBGNRXfISXO0iYd-61" target="tugkNlBGNRXfISXO0iYd-65">
          <mxGeometry relative="1" as="geometry" />
        </mxCell>
        <mxCell id="tugkNlBGNRXfISXO0iYd-72" value="Yes" style="edgeLabel;html=1;align=center;verticalAlign=middle;resizable=0;points=[];" vertex="1" connectable="0" parent="tugkNlBGNRXfISXO0iYd-66">
          <mxGeometry x="-0.3455" y="3" relative="1" as="geometry">
            <mxPoint as="offset" />
          </mxGeometry>
        </mxCell>
        <mxCell id="tugkNlBGNRXfISXO0iYd-68" value="" style="edgeStyle=orthogonalEdgeStyle;rounded=0;orthogonalLoop=1;jettySize=auto;html=1;fillColor=#f8cecc;strokeColor=#b85450;" edge="1" parent="1" source="tugkNlBGNRXfISXO0iYd-61" target="tugkNlBGNRXfISXO0iYd-67">
          <mxGeometry relative="1" as="geometry" />
        </mxCell>
        <mxCell id="tugkNlBGNRXfISXO0iYd-71" value="&lt;div&gt;No&lt;/div&gt;" style="edgeLabel;html=1;align=center;verticalAlign=middle;resizable=0;points=[];" vertex="1" connectable="0" parent="tugkNlBGNRXfISXO0iYd-68">
          <mxGeometry x="-0.6333" y="-2" relative="1" as="geometry">
            <mxPoint x="2" y="9" as="offset" />
          </mxGeometry>
        </mxCell>
        <mxCell id="tugkNlBGNRXfISXO0iYd-61" value="if(alreadyUser)" style="strokeWidth=2;html=1;shape=mxgraph.flowchart.decision;whiteSpace=wrap;fillColor=#dae8fc;strokeColor=#6c8ebf;" vertex="1" parent="1">
          <mxGeometry x="55" y="190" width="100" height="100" as="geometry" />
        </mxCell>
        <mxCell id="tugkNlBGNRXfISXO0iYd-74" value="" style="edgeStyle=orthogonalEdgeStyle;rounded=0;orthogonalLoop=1;jettySize=auto;html=1;" edge="1" parent="1" source="tugkNlBGNRXfISXO0iYd-65" target="tugkNlBGNRXfISXO0iYd-73">
          <mxGeometry relative="1" as="geometry" />
        </mxCell>
        <mxCell id="tugkNlBGNRXfISXO0iYd-65" value="Login" style="whiteSpace=wrap;html=1;strokeWidth=2;fillColor=#fff2cc;strokeColor=#d6b656;" vertex="1" parent="1">
          <mxGeometry x="240" y="210" width="120" height="60" as="geometry" />
        </mxCell>
        <mxCell id="tugkNlBGNRXfISXO0iYd-70" style="edgeStyle=orthogonalEdgeStyle;rounded=0;orthogonalLoop=1;jettySize=auto;html=1;entryX=0;entryY=0.5;entryDx=0;entryDy=0;entryPerimeter=0;" edge="1" parent="1" source="tugkNlBGNRXfISXO0iYd-67" target="tugkNlBGNRXfISXO0iYd-61">
          <mxGeometry relative="1" as="geometry">
            <Array as="points">
              <mxPoint x="105" y="460" />
              <mxPoint x="10" y="460" />
              <mxPoint x="10" y="240" />
            </Array>
          </mxGeometry>
        </mxCell>
        <mxCell id="tugkNlBGNRXfISXO0iYd-67" value="Register" style="whiteSpace=wrap;html=1;strokeWidth=2;fillColor=#fff2cc;strokeColor=#d6b656;" vertex="1" parent="1">
          <mxGeometry x="45" y="350" width="120" height="60" as="geometry" />
        </mxCell>
        <mxCell id="tugkNlBGNRXfISXO0iYd-76" value="" style="edgeStyle=orthogonalEdgeStyle;rounded=0;orthogonalLoop=1;jettySize=auto;html=1;" edge="1" parent="1" source="tugkNlBGNRXfISXO0iYd-73" target="tugkNlBGNRXfISXO0iYd-75">
          <mxGeometry relative="1" as="geometry" />
        </mxCell>
        <mxCell id="tugkNlBGNRXfISXO0iYd-77" value="&lt;div&gt;Yes&lt;/div&gt;" style="edgeLabel;html=1;align=center;verticalAlign=middle;resizable=0;points=[];" vertex="1" connectable="0" parent="tugkNlBGNRXfISXO0iYd-76">
          <mxGeometry x="-0.5875" y="2" relative="1" as="geometry">
            <mxPoint x="37" y="2" as="offset" />
          </mxGeometry>
        </mxCell>
        <mxCell id="tugkNlBGNRXfISXO0iYd-80" style="edgeStyle=orthogonalEdgeStyle;rounded=0;orthogonalLoop=1;jettySize=auto;html=1;exitX=0;exitY=0.5;exitDx=0;exitDy=0;entryX=0.25;entryY=0;entryDx=0;entryDy=0;fillColor=#f8cecc;strokeColor=#b85450;" edge="1" parent="1" source="tugkNlBGNRXfISXO0iYd-73" target="tugkNlBGNRXfISXO0iYd-65">
          <mxGeometry relative="1" as="geometry">
            <Array as="points">
              <mxPoint x="230" y="85" />
              <mxPoint x="230" y="160" />
              <mxPoint x="270" y="160" />
            </Array>
          </mxGeometry>
        </mxCell>
        <mxCell id="tugkNlBGNRXfISXO0iYd-81" value="No" style="edgeLabel;html=1;align=center;verticalAlign=middle;resizable=0;points=[];" vertex="1" connectable="0" parent="tugkNlBGNRXfISXO0iYd-80">
          <mxGeometry x="-0.4486" relative="1" as="geometry">
            <mxPoint as="offset" />
          </mxGeometry>
        </mxCell>
        <mxCell id="tugkNlBGNRXfISXO0iYd-73" value="if(Success?)" style="rhombus;whiteSpace=wrap;html=1;strokeWidth=2;fillColor=#dae8fc;strokeColor=#6c8ebf;" vertex="1" parent="1">
          <mxGeometry x="250" y="40" width="100" height="90" as="geometry" />
        </mxCell>
        <mxCell id="tugkNlBGNRXfISXO0iYd-83" style="edgeStyle=orthogonalEdgeStyle;rounded=0;orthogonalLoop=1;jettySize=auto;html=1;entryX=0.5;entryY=0;entryDx=0;entryDy=0;entryPerimeter=0;" edge="1" parent="1" source="tugkNlBGNRXfISXO0iYd-75" target="tugkNlBGNRXfISXO0iYd-82">
          <mxGeometry relative="1" as="geometry" />
        </mxCell>
        <mxCell id="tugkNlBGNRXfISXO0iYd-85" value="" style="edgeStyle=orthogonalEdgeStyle;rounded=0;orthogonalLoop=1;jettySize=auto;html=1;" edge="1" parent="1" source="tugkNlBGNRXfISXO0iYd-75" target="tugkNlBGNRXfISXO0iYd-84">
          <mxGeometry relative="1" as="geometry" />
        </mxCell>
        <mxCell id="tugkNlBGNRXfISXO0iYd-128" style="edgeStyle=orthogonalEdgeStyle;rounded=0;orthogonalLoop=1;jettySize=auto;html=1;exitX=0.75;exitY=1;exitDx=0;exitDy=0;entryX=0;entryY=0.5;entryDx=0;entryDy=0;entryPerimeter=0;" edge="1" parent="1" source="tugkNlBGNRXfISXO0iYd-75" target="tugkNlBGNRXfISXO0iYd-127">
          <mxGeometry relative="1" as="geometry">
            <Array as="points">
              <mxPoint x="560" y="190" />
              <mxPoint x="600" y="190" />
              <mxPoint x="600" y="355" />
            </Array>
          </mxGeometry>
        </mxCell>
        <mxCell id="tugkNlBGNRXfISXO0iYd-75" value="Homepage" style="whiteSpace=wrap;html=1;strokeWidth=2;fillColor=#fff2cc;strokeColor=#d6b656;" vertex="1" parent="1">
          <mxGeometry x="470" y="55" width="120" height="60" as="geometry" />
        </mxCell>
        <mxCell id="tugkNlBGNRXfISXO0iYd-86" style="edgeStyle=orthogonalEdgeStyle;rounded=0;orthogonalLoop=1;jettySize=auto;html=1;entryX=0.25;entryY=1;entryDx=0;entryDy=0;exitX=0;exitY=0.5;exitDx=0;exitDy=0;exitPerimeter=0;fillColor=#f8cecc;strokeColor=#b85450;" edge="1" parent="1" source="tugkNlBGNRXfISXO0iYd-82" target="tugkNlBGNRXfISXO0iYd-75">
          <mxGeometry relative="1" as="geometry">
            <mxPoint x="447" y="266.03999999999996" as="sourcePoint" />
            <mxPoint x="430" y="140" as="targetPoint" />
            <Array as="points">
              <mxPoint x="450" y="245" />
              <mxPoint x="450" y="140" />
              <mxPoint x="500" y="140" />
            </Array>
          </mxGeometry>
        </mxCell>
        <mxCell id="tugkNlBGNRXfISXO0iYd-87" value="no" style="edgeLabel;html=1;align=center;verticalAlign=middle;resizable=0;points=[];" vertex="1" connectable="0" parent="tugkNlBGNRXfISXO0iYd-86">
          <mxGeometry x="0.5286" y="-2" relative="1" as="geometry">
            <mxPoint x="-26" y="28" as="offset" />
          </mxGeometry>
        </mxCell>
        <mxCell id="tugkNlBGNRXfISXO0iYd-112" style="edgeStyle=orthogonalEdgeStyle;rounded=0;orthogonalLoop=1;jettySize=auto;html=1;entryX=0.5;entryY=0;entryDx=0;entryDy=0;" edge="1" parent="1" source="tugkNlBGNRXfISXO0iYd-82" target="tugkNlBGNRXfISXO0iYd-88">
          <mxGeometry relative="1" as="geometry" />
        </mxCell>
        <mxCell id="tugkNlBGNRXfISXO0iYd-82" value="Chat?" style="strokeWidth=2;html=1;shape=mxgraph.flowchart.decision;whiteSpace=wrap;fillColor=#dae8fc;strokeColor=#6c8ebf;" vertex="1" parent="1">
          <mxGeometry x="480" y="200" width="100" height="90" as="geometry" />
        </mxCell>
        <mxCell id="tugkNlBGNRXfISXO0iYd-92" value="" style="edgeStyle=orthogonalEdgeStyle;rounded=0;orthogonalLoop=1;jettySize=auto;html=1;exitX=0.5;exitY=1;exitDx=0;exitDy=0;" edge="1" parent="1" source="tugkNlBGNRXfISXO0iYd-84" target="tugkNlBGNRXfISXO0iYd-91">
          <mxGeometry relative="1" as="geometry" />
        </mxCell>
        <mxCell id="tugkNlBGNRXfISXO0iYd-93" value="Yes" style="edgeLabel;html=1;align=center;verticalAlign=middle;resizable=0;points=[];" vertex="1" connectable="0" parent="tugkNlBGNRXfISXO0iYd-92">
          <mxGeometry x="-0.5314" y="2" relative="1" as="geometry">
            <mxPoint as="offset" />
          </mxGeometry>
        </mxCell>
        <mxCell id="tugkNlBGNRXfISXO0iYd-94" style="edgeStyle=orthogonalEdgeStyle;rounded=0;orthogonalLoop=1;jettySize=auto;html=1;entryX=0.5;entryY=0;entryDx=0;entryDy=0;exitX=0.5;exitY=0;exitDx=0;exitDy=0;" edge="1" parent="1" source="tugkNlBGNRXfISXO0iYd-84" target="tugkNlBGNRXfISXO0iYd-75">
          <mxGeometry relative="1" as="geometry">
            <Array as="points">
              <mxPoint x="530" y="20" />
            </Array>
          </mxGeometry>
        </mxCell>
        <mxCell id="tugkNlBGNRXfISXO0iYd-95" value="&lt;div&gt;no&lt;/div&gt;" style="edgeLabel;html=1;align=center;verticalAlign=middle;resizable=0;points=[];" vertex="1" connectable="0" parent="tugkNlBGNRXfISXO0iYd-94">
          <mxGeometry x="-0.1829" y="-2" relative="1" as="geometry">
            <mxPoint x="1" as="offset" />
          </mxGeometry>
        </mxCell>
        <mxCell id="tugkNlBGNRXfISXO0iYd-84" value="AddFriends?" style="rhombus;whiteSpace=wrap;html=1;strokeWidth=2;fillColor=#dae8fc;strokeColor=#6c8ebf;" vertex="1" parent="1">
          <mxGeometry x="860" y="47.5" width="120" height="75" as="geometry" />
        </mxCell>
        <mxCell id="tugkNlBGNRXfISXO0iYd-98" value="" style="edgeStyle=orthogonalEdgeStyle;rounded=0;orthogonalLoop=1;jettySize=auto;html=1;" edge="1" parent="1" source="tugkNlBGNRXfISXO0iYd-88" target="tugkNlBGNRXfISXO0iYd-97">
          <mxGeometry relative="1" as="geometry" />
        </mxCell>
        <mxCell id="tugkNlBGNRXfISXO0iYd-118" style="edgeStyle=orthogonalEdgeStyle;rounded=0;orthogonalLoop=1;jettySize=auto;html=1;exitX=0;exitY=0.5;exitDx=0;exitDy=0;entryX=1;entryY=0.5;entryDx=0;entryDy=0;entryPerimeter=0;" edge="1" parent="1" source="tugkNlBGNRXfISXO0iYd-88" target="tugkNlBGNRXfISXO0iYd-117">
          <mxGeometry relative="1" as="geometry" />
        </mxCell>
        <mxCell id="tugkNlBGNRXfISXO0iYd-88" value="ChatScreen" style="whiteSpace=wrap;html=1;strokeWidth=2;fillColor=#fff2cc;strokeColor=#d6b656;" vertex="1" parent="1">
          <mxGeometry x="450" y="360" width="108" height="50" as="geometry" />
        </mxCell>
        <mxCell id="tugkNlBGNRXfISXO0iYd-96" style="edgeStyle=orthogonalEdgeStyle;rounded=0;orthogonalLoop=1;jettySize=auto;html=1;entryX=1;entryY=0.75;entryDx=0;entryDy=0;" edge="1" parent="1" source="tugkNlBGNRXfISXO0iYd-91" target="tugkNlBGNRXfISXO0iYd-75">
          <mxGeometry relative="1" as="geometry" />
        </mxCell>
        <mxCell id="tugkNlBGNRXfISXO0iYd-91" value="AddFriend(username)" style="whiteSpace=wrap;html=1;strokeWidth=2;fillColor=#fff2cc;strokeColor=#d6b656;" vertex="1" parent="1">
          <mxGeometry x="690" y="200" width="140" height="70" as="geometry" />
        </mxCell>
        <mxCell id="tugkNlBGNRXfISXO0iYd-102" style="edgeStyle=orthogonalEdgeStyle;rounded=0;orthogonalLoop=1;jettySize=auto;html=1;exitX=0;exitY=0.5;exitDx=0;exitDy=0;entryX=0.25;entryY=1;entryDx=0;entryDy=0;fillColor=#f8cecc;strokeColor=#b85450;" edge="1" parent="1" source="tugkNlBGNRXfISXO0iYd-97" target="tugkNlBGNRXfISXO0iYd-88">
          <mxGeometry relative="1" as="geometry" />
        </mxCell>
        <mxCell id="tugkNlBGNRXfISXO0iYd-103" value="no" style="edgeLabel;html=1;align=center;verticalAlign=middle;resizable=0;points=[];" vertex="1" connectable="0" parent="tugkNlBGNRXfISXO0iYd-102">
          <mxGeometry x="0.1478" y="3" relative="1" as="geometry">
            <mxPoint as="offset" />
          </mxGeometry>
        </mxCell>
        <mxCell id="tugkNlBGNRXfISXO0iYd-107" value="" style="edgeStyle=orthogonalEdgeStyle;rounded=0;orthogonalLoop=1;jettySize=auto;html=1;" edge="1" parent="1" source="tugkNlBGNRXfISXO0iYd-97" target="tugkNlBGNRXfISXO0iYd-106">
          <mxGeometry relative="1" as="geometry" />
        </mxCell>
        <mxCell id="tugkNlBGNRXfISXO0iYd-108" value="Yes" style="edgeLabel;html=1;align=center;verticalAlign=middle;resizable=0;points=[];" vertex="1" connectable="0" parent="tugkNlBGNRXfISXO0iYd-107">
          <mxGeometry x="-0.3581" y="-1" relative="1" as="geometry">
            <mxPoint as="offset" />
          </mxGeometry>
        </mxCell>
        <mxCell id="tugkNlBGNRXfISXO0iYd-97" value="CreateSubChatscreen?" style="rhombus;whiteSpace=wrap;html=1;strokeWidth=2;fillColor=#dae8fc;strokeColor=#6c8ebf;" vertex="1" parent="1">
          <mxGeometry x="413" y="510" width="170" height="110" as="geometry" />
        </mxCell>
        <mxCell id="tugkNlBGNRXfISXO0iYd-111" style="edgeStyle=orthogonalEdgeStyle;rounded=0;orthogonalLoop=1;jettySize=auto;html=1;entryX=1;entryY=0.75;entryDx=0;entryDy=0;" edge="1" parent="1" source="tugkNlBGNRXfISXO0iYd-106" target="tugkNlBGNRXfISXO0iYd-88">
          <mxGeometry relative="1" as="geometry" />
        </mxCell>
        <mxCell id="tugkNlBGNRXfISXO0iYd-106" value="CreateSubChannel()" style="whiteSpace=wrap;html=1;strokeWidth=2;fillColor=#fff2cc;strokeColor=#d6b656;" vertex="1" parent="1">
          <mxGeometry x="618" y="440" width="150" height="60" as="geometry" />
        </mxCell>
        <mxCell id="tugkNlBGNRXfISXO0iYd-119" style="edgeStyle=orthogonalEdgeStyle;rounded=0;orthogonalLoop=1;jettySize=auto;html=1;entryX=0.25;entryY=0;entryDx=0;entryDy=0;exitX=0.5;exitY=0;exitDx=0;exitDy=0;exitPerimeter=0;fillColor=#f8cecc;strokeColor=#b85450;" edge="1" parent="1" source="tugkNlBGNRXfISXO0iYd-117" target="tugkNlBGNRXfISXO0iYd-88">
          <mxGeometry relative="1" as="geometry">
            <Array as="points">
              <mxPoint x="350" y="310" />
              <mxPoint x="477" y="310" />
            </Array>
          </mxGeometry>
        </mxCell>
        <mxCell id="tugkNlBGNRXfISXO0iYd-120" value="no" style="edgeLabel;html=1;align=center;verticalAlign=middle;resizable=0;points=[];" vertex="1" connectable="0" parent="tugkNlBGNRXfISXO0iYd-119">
          <mxGeometry x="0.1574" y="3" relative="1" as="geometry">
            <mxPoint as="offset" />
          </mxGeometry>
        </mxCell>
        <mxCell id="tugkNlBGNRXfISXO0iYd-122" value="" style="edgeStyle=orthogonalEdgeStyle;rounded=0;orthogonalLoop=1;jettySize=auto;html=1;" edge="1" parent="1" source="tugkNlBGNRXfISXO0iYd-117" target="tugkNlBGNRXfISXO0iYd-121">
          <mxGeometry relative="1" as="geometry" />
        </mxCell>
        <mxCell id="tugkNlBGNRXfISXO0iYd-123" value="Yes" style="edgeLabel;html=1;align=center;verticalAlign=middle;resizable=0;points=[];" vertex="1" connectable="0" parent="tugkNlBGNRXfISXO0iYd-122">
          <mxGeometry x="-0.04" relative="1" as="geometry">
            <mxPoint as="offset" />
          </mxGeometry>
        </mxCell>
        <mxCell id="tugkNlBGNRXfISXO0iYd-117" value="!SubChannel" style="strokeWidth=2;html=1;shape=mxgraph.flowchart.decision;whiteSpace=wrap;fillColor=#dae8fc;strokeColor=#6c8ebf;" vertex="1" parent="1">
          <mxGeometry x="300" y="340" width="100" height="80" as="geometry" />
        </mxCell>
        <mxCell id="tugkNlBGNRXfISXO0iYd-125" value="" style="edgeStyle=orthogonalEdgeStyle;rounded=0;orthogonalLoop=1;jettySize=auto;html=1;" edge="1" parent="1" source="tugkNlBGNRXfISXO0iYd-121" target="tugkNlBGNRXfISXO0iYd-124">
          <mxGeometry relative="1" as="geometry" />
        </mxCell>
        <mxCell id="tugkNlBGNRXfISXO0iYd-121" value="SubchannelScreen" style="whiteSpace=wrap;html=1;strokeWidth=2;fillColor=#fff2cc;strokeColor=#d6b656;" vertex="1" parent="1">
          <mxGeometry x="240" y="460" width="120" height="60" as="geometry" />
        </mxCell>
        <mxCell id="tugkNlBGNRXfISXO0iYd-126" style="edgeStyle=orthogonalEdgeStyle;rounded=0;orthogonalLoop=1;jettySize=auto;html=1;entryX=0;entryY=0.75;entryDx=0;entryDy=0;" edge="1" parent="1" source="tugkNlBGNRXfISXO0iYd-124" target="tugkNlBGNRXfISXO0iYd-75">
          <mxGeometry relative="1" as="geometry">
            <Array as="points">
              <mxPoint x="180" y="290" />
              <mxPoint x="400" y="290" />
              <mxPoint x="400" y="100" />
            </Array>
          </mxGeometry>
        </mxCell>
        <mxCell id="tugkNlBGNRXfISXO0iYd-124" value="goback()" style="whiteSpace=wrap;html=1;strokeWidth=2;fillColor=#fff2cc;strokeColor=#d6b656;" vertex="1" parent="1">
          <mxGeometry x="165" y="550" width="120" height="60" as="geometry" />
        </mxCell>
        <mxCell id="tugkNlBGNRXfISXO0iYd-129" style="edgeStyle=orthogonalEdgeStyle;rounded=0;orthogonalLoop=1;jettySize=auto;html=1;entryX=1;entryY=1;entryDx=0;entryDy=0;fillColor=#f8cecc;strokeColor=#b85450;" edge="1" parent="1" source="tugkNlBGNRXfISXO0iYd-127" target="tugkNlBGNRXfISXO0iYd-75">
          <mxGeometry relative="1" as="geometry">
            <Array as="points">
              <mxPoint x="760" y="300" />
              <mxPoint x="620" y="300" />
              <mxPoint x="620" y="115" />
            </Array>
          </mxGeometry>
        </mxCell>
        <mxCell id="tugkNlBGNRXfISXO0iYd-130" value="no" style="edgeLabel;html=1;align=center;verticalAlign=middle;resizable=0;points=[];" vertex="1" connectable="0" parent="tugkNlBGNRXfISXO0iYd-129">
          <mxGeometry x="-0.4409" y="3" relative="1" as="geometry">
            <mxPoint as="offset" />
          </mxGeometry>
        </mxCell>
        <mxCell id="tugkNlBGNRXfISXO0iYd-132" value="" style="edgeStyle=orthogonalEdgeStyle;rounded=0;orthogonalLoop=1;jettySize=auto;html=1;" edge="1" parent="1" source="tugkNlBGNRXfISXO0iYd-127" target="tugkNlBGNRXfISXO0iYd-131">
          <mxGeometry relative="1" as="geometry" />
        </mxCell>
        <mxCell id="tugkNlBGNRXfISXO0iYd-127" value="exit?" style="strokeWidth=2;html=1;shape=mxgraph.flowchart.decision;whiteSpace=wrap;fillColor=#dae8fc;strokeColor=#6c8ebf;" vertex="1" parent="1">
          <mxGeometry x="710" y="320" width="100" height="70" as="geometry" />
        </mxCell>
        <mxCell id="tugkNlBGNRXfISXO0iYd-131" value="End" style="ellipse;whiteSpace=wrap;html=1;fillColor=#d5e8d4;strokeColor=#82b366;strokeWidth=2;" vertex="1" parent="1">
          <mxGeometry x="880" y="325" width="120" height="60" as="geometry" />
        </mxCell>
        <mxCell id="tugkNlBGNRXfISXO0iYd-133" value="start" style="strokeWidth=2;html=1;shape=mxgraph.flowchart.start_1;whiteSpace=wrap;fillColor=#d5e8d4;strokeColor=#82b366;" vertex="1" parent="1">
          <mxGeometry x="53" y="20" width="105" height="70" as="geometry" />
        </mxCell>
      </root>
    </mxGraphModel>
  </diagram>
</mxfile>
